<svg xmlns="http://www.w3.org/2000/svg" width="17" height="18" viewBox="0 0 17 18">
    <g fill="none" fill-rule="evenodd">
        <path fill="#FCEE34" d="M10.094 8.613c-.052.178-.083.369-.073.597.027.564.214 1.238.487 1.73.776 1.4 2.334.228 3.162-.512.793-.707 2.27-1.271 2.97-.88.698.392.307 1.015-.54 1.521a24.2 24.2 0 0 0-2.536 1.772c-.94.739-1.548 1.71-2.35 2.58-.592.643-1.255 1.247-2.013 1.678-1.054.598-2.289 1.23-3.497.706-.874-.38-1.512-1.309-1.828-2.198-.46-1.298-1.154-3.804-1.488-4.807-.333-1.003-.902-2.701-1.965-4.241-1.064-1.54.11-2.45.984-1.21.339.48.6.98.887 1.485.277.489.511 1.004.82 1.469.253.38.385.915.903.744.274-.09.31-1.038.2-1.434-.52-1.88-1.03-4.98-1.014-5.53.015-.551.667-1.515 1.332-.468s.603 2.514.898 3.791c.106.457.248.89.328 1.35.04.224.08.738.345.816.409.119.293-.607.284-.821-.027-.586.027-1.157.028-1.745.002-1.06.015-2.121.032-3.181v-.042S6.298.251 7.105.019c.807-.233.862 1.726.807 2.552-.055.824.068 2.945 0 3.808-.07.863.241 1.3.523 1.302.517.004.678-.725.779-1.125.358-1.439.35-2.975.809-4.385.243-.749.604-1.294 1.132-1.082.528.211.626.808.26 2.732-.249 1.305-.507 2.628-.954 3.88-.123.343-.276.608-.366.912"/>
        <path fill="#FCEE34" fill-rule="nonzero" d="M7.192.03l-.1.072.1-.072m.077-.015M3.126 8.329c.102.157.188.338.29.482-.102-.144-.187-.324-.29-.482m.02.01l.026.04-.025-.04"/>
        <path fill="#FCEE34" d="M1.266 8"/>
        <path fill="#F06723" fill-rule="nonzero" d="M7.226.025c-.024 0-.049.011-.074.039.025-.028.05-.04.074-.04L7.27.04 7.226.025"/>
        <path fill="#F06723" d="M7.235 0a.407.407 0 0 0-.07.006l-.058.013-.02.006a31.45 31.45 0 0 1-.644 1.32 3.762 3.762 0 0 0 .01.44l-.002.041c-.014.867-.025 1.734-.03 2.601.55-1.702.889-3.226 1.088-4.31A.39.39 0 0 0 7.28.003h-.002L7.234 0"/>
        <path fill="#F06723" fill-rule="nonzero" d="M3.152 8.37l.013.016-.013-.016m-.01-.02l.013.024-.013-.024m-.758-1.325c.235.434.448.882.72 1.29v.002-.002c-.271-.408-.485-.856-.72-1.29M5.153 3.74c.079.563.14 1.137.264 1.679.061.262.134.517.2.775-.066-.257-.139-.513-.2-.776-.124-.54-.185-1.115-.264-1.678"/>
        <path fill="#F06723" fill-rule="nonzero" d="M4.649 8.766c-.101.096-.203.19-.305.281.082-.057.167-.116.252-.178l.053-.103M2.392 7.032c-.396.385-.774.71-1.126.983.415.824.714 1.62.934 2.26l.194-.09c.426-.374.82-.764 1.185-1.165a.772.772 0 0 1-.163-.18c-.1-.144-.185-.328-.287-.488l-.002-.003-.002-.003-.005-.008-.001-.002v-.001l-.003-.005v-.001l-.002-.003c-.272-.41-.487-.86-.722-1.294M5.167 3.74c-.334.734-.836 1.38-1.408 1.938.142.694.299 1.381.458 1.956l.001.006c.036.134.056.33.056.533v.029a16.74 16.74 0 0 0 1.358-2.003c-.066-.257-.14-.513-.2-.776-.125-.543-.186-1.119-.265-1.683"/>
        <path fill="#FCEE34" d="M10.668 1.115"/>
        <path fill="#FCEE34" fill-rule="nonzero" d="M8.016 7.312c.105.244.264.366.414.367-.15 0-.309-.124-.414-.367M9.282 6.26c-.022.099-.045.197-.069.295-.03.118-.064.263-.112.41.047-.147.083-.292.112-.41.025-.098.047-.197.07-.295"/>
        <path fill="#FCEE34" d="M6.153 7.622l.1.015-.1-.015"/>
        <path fill="#76CCDD" fill-rule="nonzero" d="M6.402 7.357c-.026.13-.083.227-.204.227.12 0 .178-.098.204-.227m2.706-.391c-.114.352-.3.713-.663.713.362 0 .549-.36.663-.713M7.94 5.672c0 .277-.008.522-.022.708-.032.406.02.717.113.932-.094-.215-.145-.526-.113-.932.014-.186.021-.431.022-.708m1.983-3.138c-.328 1.21-.37 2.498-.634 3.726.264-1.228.306-2.515.634-3.726"/>
        <path fill="#76CCDD" d="M10.682 1.115a.812.812 0 0 0-.192.159c-.177.436-.365.854-.561 1.252-.328 1.213-.37 2.502-.635 3.733-.022.099-.045.197-.069.296-.03.117-.064.263-.111.41-.114.353-.302.715-.663.715h-.005c-.149 0-.306-.123-.411-.367-.094-.216-.146-.528-.113-.934.014-.187.021-.431.022-.71a16.917 16.917 0 0 1-1.54 1.688c-.026.13-.084.228-.204.228l-.036-.003c-.535.492-1.062.91-1.557 1.265a21.346 21.346 0 0 1-1.88 3.006l.181.609c1.411-.518 3.065-1.484 4.57-3.273 0 0-1.469 3.378-4.135 4.318.26.04.543.066.848.066.68 0 1.465-.123 2.344-.45 3.951-4.636 4.158-10.585 4.147-12.008M2.31 10.565a29.259 29.259 0 0 0 0 0"/>
        <path fill="#76CCDD" fill-rule="nonzero" d="M2.309 10.565l.1.243a29.052 29.052 0 0 0-.1-.243"/>
        <path fill="#76CCDD" d="M4.589 8.855l-.251.177a15.926 15.926 0 0 1-2.029 1.533l.081.243c.088.264.2.632.327 1.055A21.444 21.444 0 0 0 4.59 8.855M2.213 10.26l.08.1-.08-.1M2.213 10.26l.08.1-.08-.1M2.399 10.168l-.194.092.02.06c.058-.05.116-.1.174-.152M3.725 15.16l.023.1.077-.053-.1-.047"/>
        <path fill="#FCEE34" fill-rule="nonzero" d="M13.728 10.457l-.05.045.05-.045m1.007-.701"/>
        <path fill="#D14998" fill-rule="nonzero" d="M13.669999999999998 10.445c-.47.418-1.169.97-1.827 1.12.658-.149 1.357-.702 1.827-1.12m1.18-.705l-.1.1.1-.1"/>
        <path fill="#D14998" d="M14.795 9.74l-.045.02c-.4.18-.781.42-1.071.678l-.01.008c-.47.418-1.168.97-1.827 1.12a1.489 1.489 0 0 1-.436.032 1.066 1.066 0 0 1-.24-.05c-.365.478-.75.923-1.144 1.334-1.01 1.72-2.552 3.376-4.897 4.57.182.146.378.27.588.36l.005.004h.003c2.85-.812 7.148-2.877 9.074-8.076"/>
        <path fill="#FFF" d="M8.146 1.328v.1-.1"/>
        <path fill="#FCEE34" fill-rule="nonzero" d="M7.777.656c.163.59.168 1.433.137 1.904.031-.471.027-1.313-.137-1.904M5.751 6.765c.027.15.053.432.147.624-.093-.192-.12-.473-.147-.624m.72-1.757c-.002.475-.1.94-.1 1.41 0-.47.098-.935.1-1.41"/>
        <path fill="#FCEE34" d="M4.287 8.198"/>
        <path fill="#76CCDD" d="M2.22 10.32l.1.26-.1-.26"/>
        <path fill="#FFCC0A" fill-rule="nonzero" d="M7.981 2.577"/>
        <path fill="#FFCC0A" d="M7.775.656A19.769 19.769 0 0 1 6.414 4.66l-.001.336c-.001.473-.036.936-.036 1.404 0 .105.002.21.007.318.68-.99 1.232-2.138 1.514-3.45v-.106c0-.23.003-.432.013-.589l.001-.01V2.56c.03-.472.025-1.314-.137-1.905M5.701 6.443A27.03 27.03 0 0 1 4.65 8.748a12.98 12.98 0 0 0 1.266-1.364c-.095-.192-.121-.472-.148-.623a7.07 7.07 0 0 0-.066-.318"/>
        <path fill="#FFCC0A" fill-rule="nonzero" d="M4.174 8.844c-.04.108-.094.184-.163.207a.606.606 0 0 1-.186.032.405.405 0 0 1 0 .001c.056 0 .118-.01.186-.033.069-.022.122-.098.163-.207m1.454-2.66"/>
        <path fill="#FFCC0A" d="M5.628 6.183a16.719 16.719 0 0 1-1.355 2.003 2.107 2.107 0 0 1-.095.662c-.04.108-.094.184-.163.206a.574.574 0 0 1-.185.034.4.4 0 0 1-.249-.085c-.364.4-.757.791-1.182 1.165.502-.242 1.179-.61 1.944-1.137.101-.092.203-.185.305-.281.393-.77.74-1.548 1.043-2.311a8.121 8.121 0 0 0-.063-.256M2.22 10.32l.1.26-.1-.26M2.22 10.32l.1.26-.1-.26"/>
        <path fill="#FFCC0A" d="M4.336 9.038c-.764.523-1.44.89-1.942 1.13l-.174.149c.03.085.058.169.084.248.608-.387 1.32-.894 2.032-1.527"/>
        <path fill="#76CCDD" d="M2.89 12.458"/>
        <path fill="#D14998" d="M7.465 9.19c-1.506 1.791-3.163 2.758-4.575 3.276l.306 1.023.128.022c2.67-.94 4.14-4.32 4.14-4.32"/>
        <path fill="#FCEE34" d="M10.996 11.466a.944.944 0 0 1 0 0"/>
        <path fill="#FCEE34" fill-rule="nonzero" d="M3.8689999999999998 15.572999999999999l.076.1-.076-.1"/>
        <path fill="#76CCDD" d="M3.725 15.206"/>
        <path fill="#CBDB2B" fill-rule="nonzero" d="M10.012 9.132a2.154 2.154 0 0 1 0 0m1.177-8.017c.487.227.569.844.214 2.713-.248 1.306-.505 2.63-.951 3.882.446-1.253.703-2.576.951-3.882.354-1.87.273-2.486-.214-2.713"/>
        <path fill="#CBDB2B" d="M11.189 1.115c-.165 2.072-.948 8.206-4.544 11.969 1.099-.432 2.341-1.188 3.71-2.43a4.326 4.326 0 0 1-.342-1.435 1.765 1.765 0 0 1 .072-.597c.09-.304.243-.57.366-.913.446-1.253.703-2.575.951-3.881.356-1.87.275-2.486-.213-2.713"/>
        <path fill="#CBDB2B" fill-rule="nonzero" d="M10.406 10.748000000000001a3.082 3.082 0 0 1 0 0"/>
        <path fill="#CBDB2B" d="M10.407 10.748c-.713 1.104-3.155 4.558-5.753 4.558-.137 0-.274-.01-.412-.03-.125.096-.253.191-.383.284l.014.041c.112.315.265.636.454.935l.001.003h.001v.001l.001.002v.001l.002.003c.047.074.097.148.149.217 1.006-.454 3.41-1.686 5.53-3.89.304-.517.56-1.04.776-1.559a1.505 1.505 0 0 1-.283-.371 5.364 5.364 0 0 1-.097-.195"/>
        <path fill="#CBDB2B" d="M3.767 15.176l-.042.02c.043.133.085.26.126.377.129-.094.256-.19.38-.287a2.767 2.767 0 0 1-.464-.11M10.792 11.313c-.217.517-.474 1.04-.78 1.557.396-.41.782-.853 1.148-1.333a1.07 1.07 0 0 1-.368-.224M10.355 10.656"/>
        <path fill="#76CCDD" d="M3.233 13.542l.179.58-.179-.58M3.211 13.48l.08.1-.08-.1"/>
        <path fill="#0598CC" d="M6.645 13.084l-.123.047c-.152.18-.31.358-.473.533.207-.187.405-.38.596-.58M3.397 14.122"/>
        <path fill="#0598CC" d="M6.526 13.13c-.877.328-1.66.45-2.337.45-.302 0-.585-.025-.846-.066a6.053 6.053 0 0 1-.11.038l.175.579c.112.365.222.715.325 1.027l.054.018a9.608 9.608 0 0 0 2.267-1.52c.163-.173.32-.348.472-.526"/>
        <path fill="#0598CC" d="M3.211 13.48l.079.1h.001l-.08-.1"/>
        <path fill="#0598CC" d="M3.203 13.48l.019.1c.039-.018.077-.04.115-.063-.045-.01-.09-.023-.134-.036M10.354 10.656c-1.37 1.245-2.613 2.002-3.712 2.435-.191.198-.389.39-.595.575a14.939 14.939 0 0 1-1.8 1.633c.136.02.274.03.41.03 2.594 0 5.03-3.465 5.743-4.572a1.616 1.616 0 0 1-.046-.1"/>
        <path fill="#0598CC" d="M6.064 13.664a9.668 9.668 0 0 1-2.28 1.524c.156.05.313.087.47.11.67-.512 1.272-1.061 1.81-1.634"/>
        <path fill="#FCEE34" d="M1.027 6.361h-.08.08M4.231 1.267a1.281 1.281 0 0 0 0 0M4.663 1.847"/>
        <path fill="#FCEE34" fill-rule="nonzero" d="M3.362 3.453"/>
        <path fill="#76CCDD" d="M3.472 4.122"/>
        <path fill="#FCEE34" fill-rule="nonzero" d="M.023 5.224c-.058.252-.01.6.204 1.005-.214-.405-.262-.752-.204-1.005"/>
        <path fill="#0598CC" fill-rule="nonzero" d="M3.263 2.779"/>
        <path fill="#0598CC" d="M4.226 1.267c-.31.578-.633 1.074-.963 1.502.025.2.058.43.097.683v.002c.032.21.07.434.11.668a16.42 16.42 0 0 0 1.193-2.277 2.849 2.849 0 0 0-.129-.226 1.312 1.312 0 0 0-.308-.352M4.663 1.847"/>
        <path fill="#0598CC" d="M4.672 1.847a16.52 16.52 0 0 1-1.2 2.279c.038.22.079.45.122.683.555-.782.933-1.772 1.189-2.724a2.68 2.68 0 0 0-.111-.238"/>
        <path fill="#0598CC" fill-rule="nonzero" d="M.8380000000000002 4.859l.028.014-.028-.014"/>
        <path fill="#0598CC" d="M.808 4.824c-.262.125-.514.22-.754.292a.767.767 0 0 0-.03.1v.002l-.001.002v.002c-.059.254-.01.603.205 1.011.247.049.484.072.707.072h.012c.347 0 .666-.056.96-.158a9.995 9.995 0 0 0-.502-.8 2.022 2.022 0 0 0-.206-.249h-.002v-.001a1.2 1.2 0 0 0-.383-.271l-.006-.002"/>
        <path fill="#F06723" d="M8.463 7.688c-.303.514-.805.907-1.624 1.014 0 0 .644-.4 1.22-1.297.114.203.265.299.404.283z"/>
    </g>
</svg>
